<?xml version="1.0" encoding="utf-8"?>
<!-- Generator: Adobe Illustrator 24.1.1, SVG Export Plug-In . SVG Version: 6.00 Build 0)  -->
<svg version="1.1" id="Layer_1" xmlns="http://www.w3.org/2000/svg" xmlns:xlink="http://www.w3.org/1999/xlink" x="0px" y="0px"
	 viewBox="0 0 86.1 11.2" style="enable-background:new 0 0 86.1 11.2;" xml:space="preserve">
<style type="text/css">
	.st0{fill:#D9098C;}
</style>
<g>
	<g>
		<path class="st0" d="M0.3,2.3C0.6,2,0.8,1.8,1.1,1.6l0.4-0.3c0.1,0,0.1-0.1,0.2-0.1L2,1l0.5-0.3L3,0.5l0.3-0.1l0.3-0.1
			C3.7,0.3,3.8,0.2,4,0.2C4.7,0,5.4,0,6.1,0c0.7,0,1.3,0.1,2,0.3c0.3,0.1,0.6,0.2,1,0.3C9.4,0.7,9.7,0.8,10,0.9
			c0.6,0.2,1.2,0.5,1.8,0.7c1.2,0.5,2.3,1.1,3.4,1.7c1.1,0.6,2.3,1.1,3.4,1.6c1.1,0.5,2.3,0.8,3.5,1.1c0.3,0.1,0.6,0.1,0.9,0.2
			c0.3,0,0.6,0.1,0.9,0.1c0.6,0.1,1.3,0.1,1.9,0.1c1.3,0,2.5,0,3.7-0.3l0,0c0.1,0,0.1,0,0.2,0.1c0,0.1,0,0.1-0.1,0.2
			c-1.2,0.3-2.5,0.5-3.8,0.5c-0.6,0-1.3,0-1.9,0c-0.3,0-0.6,0-1-0.1c-0.3,0-0.6-0.1-1-0.1c-1.3-0.2-2.5-0.5-3.7-0.9
			c-1.2-0.4-2.4-0.9-3.5-1.4s-2.3-1-3.5-1.5S9,2,7.8,1.8C7.2,1.6,6.6,1.6,6,1.6c-0.6,0-1.1,0.1-1.7,0.2c-1,0.3-2,0.9-2.8,1.8l0,0
			C1.3,4,0.7,4,0.3,3.6S-0.1,2.7,0.3,2.3C0.3,2.3,0.3,2.3,0.3,2.3z"/>
		<path class="st0" d="M18.8,2.3C19,2,19.3,1.8,19.5,1.6L20,1.3c0.1,0,0.1-0.1,0.2-0.1L20.4,1l0.5-0.3l0.5-0.2l0.3-0.1l0.3-0.1
			c0.2-0.1,0.3-0.1,0.5-0.2C23.1,0,23.8,0,24.5,0c0.7,0.1,1.4,0.2,2,0.3c0.3,0.1,0.6,0.2,1,0.3c0.3,0.1,0.6,0.2,0.9,0.3
			c0.6,0.2,1.2,0.5,1.8,0.7c1.2,0.5,2.3,1.1,3.4,1.7c1.1,0.6,2.3,1.1,3.4,1.6c1.2,0.5,2.3,0.8,3.5,1.1c0.3,0.1,0.6,0.1,0.9,0.2
			c0.3,0,0.6,0.1,0.9,0.1c0.6,0.1,1.3,0.1,1.9,0.1c1.3,0,2.5,0,3.7-0.3l0,0c0.1,0,0.1,0,0.2,0.1c0,0.1,0,0.1-0.1,0.2
			c-1.2,0.3-2.5,0.5-3.8,0.5c-0.6,0-1.3,0-1.9,0c-0.3,0-0.6,0-1-0.1c-0.3,0-0.6-0.1-1-0.1c-1.3-0.2-2.5-0.5-3.7-0.9
			c-1.2-0.4-2.4-0.9-3.5-1.4s-2.3-1-3.5-1.5S27.4,2,26.2,1.8c-0.6-0.1-1.2-0.2-1.7-0.2c-0.6,0-1.1,0.1-1.6,0.2c-1,0.3-2,0.9-2.8,1.8
			l0,0c-0.4,0.4-0.9,0.4-1.3,0C18.4,3.3,18.3,2.7,18.8,2.3C18.7,2.3,18.7,2.3,18.8,2.3z"/>
		<path class="st0" d="M37.2,2.3C37.5,2,37.7,1.8,38,1.6l0.4-0.3c0.1,0,0.1-0.1,0.2-0.1L38.9,1l0.5-0.3l0.5-0.2l0.3-0.1l0.3-0.1
			c0.2-0.1,0.3-0.1,0.5-0.2C41.6,0,42.3,0,43,0c0.7,0.1,1.4,0.2,2,0.3c0.3,0.1,0.6,0.2,1,0.3c0.3,0.1,0.6,0.2,0.9,0.3
			c0.6,0.2,1.2,0.5,1.8,0.7c1.2,0.5,2.3,1.1,3.4,1.7c1.1,0.6,2.3,1.1,3.4,1.6C56.6,5.4,57.8,5.8,59,6c0.3,0.1,0.6,0.1,0.9,0.2
			c0.3,0,0.6,0.1,0.9,0.1c0.6,0.1,1.3,0.1,1.9,0.1c1.3,0,2.5,0,3.7-0.3l0,0c0.1,0,0.1,0,0.2,0.1c0,0.1,0,0.1-0.1,0.2
			c-1.2,0.3-2.5,0.5-3.8,0.5c-0.6,0-1.3,0-1.9,0c-0.3,0-0.6,0-1-0.1c-0.3,0-0.6-0.1-1-0.1c-1.3-0.2-2.5-0.5-3.7-0.9
			c-1.2-0.4-2.4-0.9-3.5-1.4s-2.3-1-3.5-1.5C47,2.4,45.8,2,44.6,1.8c-0.6-0.1-1.2-0.2-1.7-0.2c-0.6,0-1.1,0.1-1.7,0.2
			c-1,0.3-2,0.9-2.8,1.8l0,0c-0.3,0.4-0.9,0.4-1.3,0C36.8,3.3,36.8,2.7,37.2,2.3C37.1,2.3,37.2,2.3,37.2,2.3z"/>
	</g>
	<g>
		<path class="st0" d="M19.2,7.5C20,8.3,20.9,9,22,9.3c0.5,0.1,1.1,0.2,1.6,0.2c0.6,0,1.1-0.1,1.7-0.2c1.2-0.2,2.3-0.6,3.5-1.1
			c1.2-0.4,2.3-0.9,3.5-1.4s2.3-1,3.5-1.4s2.5-0.8,3.7-0.9c0.3,0,0.6-0.1,1-0.1c0.3,0,0.6,0,1-0.1c0.6,0,1.3,0,1.9,0
			c1.3,0,2.6,0.2,3.8,0.5c0.1,0,0.1,0.1,0.1,0.2c0,0.1-0.1,0.1-0.2,0.1l0,0c-1.2-0.3-2.5-0.3-3.7-0.3c-0.6,0-1.3,0.1-1.9,0.1
			c-0.3,0-0.6,0.1-0.9,0.1C40.3,5,40,5,39.7,5.1c-1.2,0.2-2.4,0.6-3.5,1.1c-1.2,0.5-2.3,1-3.4,1.6c-1.1,0.6-2.3,1.1-3.4,1.7
			c-0.6,0.3-1.2,0.5-1.8,0.7c-0.3,0.1-0.6,0.2-0.9,0.3c-0.3,0.1-0.6,0.2-1,0.3c-0.6,0.2-1.3,0.3-2,0.3c-0.7,0-1.4,0-2.1-0.2
			c-0.2,0-0.3-0.1-0.5-0.1l-0.3-0.1l-0.3-0.1l-0.5-0.2l-0.5-0.3l-0.2-0.1c-0.1-0.1-0.1-0.1-0.2-0.1l-0.4-0.3
			c-0.3-0.2-0.5-0.4-0.8-0.7c-0.4-0.3-0.4-0.9-0.1-1.3c0.3-0.4,0.9-0.4,1.3-0.1C19.1,7.4,19.2,7.4,19.2,7.5L19.2,7.5z"/>
		<path class="st0" d="M37.7,7.5c0.8,0.8,1.7,1.5,2.8,1.8c0.5,0.1,1.1,0.2,1.7,0.2c0.6,0,1.2-0.1,1.7-0.2c1.2-0.2,2.3-0.6,3.5-1.1
			c1.2-0.4,2.3-0.9,3.5-1.4s2.3-1,3.5-1.4c1.2-0.4,2.5-0.8,3.7-0.9c0.3,0,0.6-0.1,1-0.1c0.3,0,0.6,0,1-0.1c0.6,0,1.3,0,1.9,0
			c1.3,0,2.6,0.2,3.8,0.5c0.1,0,0.1,0.1,0.1,0.2c0,0.1-0.1,0.1-0.2,0.1l0,0c-1.2-0.3-2.5-0.3-3.7-0.3c-0.6,0-1.3,0.1-1.9,0.1
			c-0.3,0-0.6,0.1-0.9,0.1C58.8,5,58.5,5,58.2,5.1c-1.2,0.2-2.4,0.6-3.5,1.1c-1.2,0.5-2.3,1-3.4,1.6S49,8.9,47.8,9.4
			c-0.6,0.2-1.2,0.5-1.8,0.7c-0.3,0.1-0.6,0.2-0.9,0.3c-0.3,0.1-0.6,0.2-1,0.3c-0.6,0.2-1.3,0.3-2,0.3c-0.7,0-1.4,0-2.1-0.2
			c-0.2,0-0.3-0.1-0.5-0.1l-0.3-0.1L39,10.5l-0.5-0.2L38,10.1l-0.2-0.1c-0.1-0.1-0.2-0.1-0.2-0.1l-0.4-0.3c-0.3-0.2-0.5-0.4-0.8-0.7
			c-0.4-0.3-0.4-0.9-0.1-1.3c0.3-0.4,0.9-0.4,1.3-0.1C37.6,7.4,37.6,7.4,37.7,7.5L37.7,7.5z"/>
		<path class="st0" d="M86.1,5.3c-2.2,0-4.3,0-6.4,0.1c-1.1,0.1-2.1,0.1-3.2,0.3c-1,0.2-2.1,0.4-3.1,0.7c-2,0.6-3.9,1.5-5.9,2.4
			l-1.4,0.7c-0.5,0.2-1,0.5-1.5,0.7c-1,0.4-2.1,0.8-3.3,0.9c-0.6,0.1-1.2,0.1-1.8,0c-0.6-0.1-1.2-0.2-1.8-0.4
			c-1.2-0.4-2.2-1.1-3-1.9l0,0c-0.4-0.4-0.4-0.9,0-1.3s0.9-0.4,1.3,0c0,0,0,0,0,0c0.7,0.7,1.5,1.3,2.3,1.6c0.4,0.2,0.9,0.3,1.3,0.4
			c0.5,0.1,1,0.1,1.4,0c1-0.1,2-0.4,2.9-0.7c0.5-0.2,1-0.4,1.4-0.6L67,7.5c2-0.9,4-1.7,6.1-2.3c1.1-0.3,2.2-0.5,3.2-0.6
			s2.2-0.2,3.3-0.2c2.2,0,4.3,0,6.5,0.1"/>
	</g>
</g>
</svg>
