<svg width="60" height="60" viewBox="0 0 60 60" fill="none" xmlns="http://www.w3.org/2000/svg">
<path fill-rule="evenodd" clip-rule="evenodd" d="M11.632 13.8059H46.1743C48.6749 13.8059 49.4049 16.1038 49.1676 17.0755L43.8843 38.673C43.231 41.3436 40.5199 42.6684 38.842 42.6684H19.303C17.6251 42.6684 14.7953 41.3407 14.1745 38.8966L8.58016 16.8577C8.26615 15.6183 9.48096 13.8059 11.632 13.8059Z" fill="white"/>
<path fill-rule="evenodd" clip-rule="evenodd" d="M45.1983 13.1156L49.0656 13.1163C49.2855 12.1981 49.6227 10.4081 49.9483 9.56087C50.6371 7.77012 56.1975 10.3343 57.0671 7.70644C57.5685 6.19064 56.5136 5.224 55.225 5.16322C46.6793 4.76238 46.7184 3.83843 45.1983 13.1156Z" fill="#EE7C00"/>
<path fill-rule="evenodd" clip-rule="evenodd" d="M16.5362 43.3977C12.569 44.5807 14.4278 50.3082 18.2357 49.1469C19.554 48.7446 20.6987 47.2042 20.2081 45.4453C19.834 44.1024 18.3797 42.8478 16.5362 43.3977Z" fill="#6E6E6E"/>
<path fill-rule="evenodd" clip-rule="evenodd" d="M17.4522 48.3395C15.4183 47.804 15.3184 44.8629 17.4681 44.2269C16.2352 44.1147 15.2367 45.0712 15.2403 46.289C15.2446 47.5501 16.199 48.3988 17.4522 48.3395Z" fill="#FDFDFD"/>
<path fill-rule="evenodd" clip-rule="evenodd" d="M39.8694 43.3977C35.903 44.5807 37.7611 50.3082 41.569 49.1469C42.8873 48.7446 44.0319 47.2042 43.5414 45.4453C43.1666 44.1024 41.713 42.8478 39.8694 43.3977Z" fill="#6E6E6E"/>
<path fill-rule="evenodd" clip-rule="evenodd" d="M40.7854 48.3395C38.7516 47.804 38.6517 44.8629 40.8013 44.2269C39.5684 44.1147 38.57 45.0712 38.5736 46.289C38.5772 47.5501 39.5315 48.3988 40.7854 48.3395Z" fill="#FDFDFD"/>
<path fill-rule="evenodd" clip-rule="evenodd" d="M40.8932 36.4264L29.9216 30.0261V42.452L33.3424 39.2642L35.5261 42.8782L38.7914 42.8876L36.0586 37.7867L40.8932 36.4264Z" fill="#F07D00"/>
<path d="M14.5811 2.30381C14.5811 2.56067 14.5016 2.78279 14.3417 2.9738C14.1818 3.16192 13.9907 3.31893 13.7679 3.44121C13.5711 3.56421 13.3656 3.69517 13.1543 3.83192C12.946 3.97156 12.7521 4.12857 12.5748 4.30221C12.3982 4.47297 12.255 4.66398 12.1436 4.87815C12.0321 5.08942 11.9779 5.32891 11.9779 5.59662C11.9779 5.83032 12.0321 6.04159 12.1436 6.22971C12.255 6.42072 12.3917 6.60595 12.5516 6.79118C12.7115 6.97351 12.8888 7.16452 13.0827 7.35843C13.2766 7.55233 13.4539 7.77157 13.6138 8.01106C13.7737 8.25055 13.9104 8.51825 14.0219 8.82069C14.1333 9.12023 14.1875 9.47043 14.1875 9.87271C14.1875 10.152 14.1304 10.466 14.0132 10.8162C13.896 11.1671 13.7361 11.5202 13.5364 11.8769C13.3338 12.2336 13.0993 12.5809 12.8259 12.9145C12.5516 13.248 12.2637 13.5447 11.9583 13.8066C11.6501 14.0692 11.3303 14.2798 10.996 14.4426C10.6618 14.6054 10.3398 14.6849 10.0258 14.6849C9.68064 14.6849 9.37531 14.5909 9.10688 14.3999C8.84134 14.2118 8.70749 13.9267 8.70749 13.5475C8.70749 13.2936 8.76754 13.057 8.88982 12.8378C9.01282 12.6214 9.16404 12.413 9.34058 12.2133C9.51785 12.0108 9.71465 11.8168 9.93171 11.6258C10.1488 11.4377 10.3456 11.2496 10.5228 11.0586C10.7001 10.8705 10.8513 10.6708 10.9736 10.4653C11.0966 10.2598 11.1559 10.0406 11.1559 9.80687C11.1559 9.482 11.0416 9.15135 10.8166 8.81201C10.588 8.47267 10.3369 8.12176 10.0598 7.75999C9.78266 7.39822 9.5316 7.02705 9.30296 6.64792C9.07722 6.26878 8.9629 5.88386 8.9629 5.49605C8.9629 5.01707 9.09169 4.51276 9.34565 3.98241C9.6025 3.45495 9.93099 2.97019 10.3304 2.52811C10.7298 2.08892 11.1813 1.72426 11.6805 1.4334C12.1797 1.14543 12.6739 1 13.1652 1C13.5537 1 13.8873 1.11721 14.1644 1.35091C14.4408 1.58534 14.5811 1.90152 14.5811 2.30381Z" fill="#292264"/>
<path d="M21.2341 4.56485C21.2341 4.79204 21.1371 4.99825 20.9425 5.18565C20.7457 5.37087 20.5105 5.53294 20.237 5.67403C19.9614 5.81512 19.6799 5.93089 19.389 6.02133C19.1004 6.11177 18.8601 6.174 18.6684 6.2109C18.5895 6.90549 18.528 7.59864 18.4817 8.29106C18.4362 8.98131 18.4152 9.67374 18.4152 10.3691C18.4152 10.7395 18.4231 11.1056 18.4434 11.4667C18.4636 11.8277 18.4738 12.1895 18.4738 12.5505C18.4738 12.7126 18.4557 12.8913 18.4224 13.0859C18.387 13.2806 18.3255 13.4636 18.2408 13.6351C18.1569 13.8066 18.0389 13.9498 17.8906 14.0685C17.7401 14.1864 17.5556 14.2443 17.3364 14.2443C17.0781 14.2443 16.8711 14.1792 16.7178 14.0475C16.5622 13.918 16.4414 13.7581 16.3574 13.5678C16.2728 13.3782 16.2171 13.1764 16.186 12.9658C16.1556 12.7524 16.1404 12.5606 16.1404 12.3892C16.1223 11.8494 16.1071 11.3053 16.097 10.7583C16.0868 10.2113 16.0818 9.66505 16.0818 9.11372C16.0818 8.65283 16.0847 8.20134 16.0897 7.75854C16.0948 7.31573 16.0977 6.86642 16.0977 6.40553C15.9573 6.42434 15.817 6.43809 15.6708 6.44749C15.5254 6.45401 15.3792 6.45907 15.2287 6.45907C15.1086 6.45907 14.9531 6.44966 14.7584 6.42651C14.5616 6.40336 14.3749 6.36139 14.1962 6.30351C14.0175 6.24346 13.8612 6.16242 13.731 6.05823C13.6008 5.95404 13.5371 5.81947 13.5371 5.65522C13.5371 5.3839 13.6543 5.14585 13.8895 4.94182C14.1246 4.73561 14.4234 4.55979 14.7859 4.4093C15.1513 4.2588 15.555 4.13363 16 4.02727C16.4443 3.92308 16.8842 3.84204 17.3183 3.78416C17.7524 3.72411 18.1511 3.67997 18.5143 3.65465C18.8797 3.62715 19.1611 3.61268 19.3623 3.61268C19.5511 3.61268 19.753 3.61992 19.9679 3.63367C20.1828 3.64741 20.3846 3.68431 20.5735 3.74943C20.7623 3.81165 20.9208 3.90716 21.0459 4.0345C21.1726 4.16185 21.2341 4.33766 21.2341 4.56485Z" fill="#292264"/>
<path d="M25.8104 4.9997C25.6107 4.94761 25.4211 4.98089 25.2366 5.10244C25.0558 5.22183 24.8828 5.39765 24.7208 5.63135C24.5587 5.86505 24.4154 6.13493 24.2888 6.44388C24.1644 6.75355 24.058 7.07046 23.9726 7.39605C23.8764 7.76216 23.804 8.13695 23.7534 8.51464C23.7049 8.89594 23.6883 9.24541 23.7056 9.56304C23.723 9.88067 23.7794 10.1484 23.8721 10.3654C23.9683 10.5803 24.1144 10.7135 24.3141 10.7656C24.5428 10.8256 24.7562 10.7576 24.9545 10.5622C25.1498 10.3662 25.3307 10.1173 25.4942 9.81266C25.6577 9.50733 25.8003 9.18535 25.9146 8.84746C26.0325 8.5074 26.1222 8.22088 26.1823 7.99224C26.2575 7.70717 26.3169 7.40329 26.3646 7.07987C26.4095 6.755 26.4269 6.44967 26.4138 6.15808C26.3979 5.86939 26.3487 5.6176 26.2583 5.40126C26.1693 5.18854 26.0181 5.05397 25.8104 4.9997ZM23.3091 13.7451C22.6681 13.5772 22.1529 13.2697 21.7658 12.8262C21.3759 12.3819 21.0987 11.8494 20.928 11.2264C20.7609 10.602 20.6936 9.91468 20.7312 9.15931C20.7652 8.40393 20.8875 7.63337 21.0944 6.84544C21.2883 6.10816 21.5647 5.38462 21.9272 4.67194C22.2882 3.95564 22.718 3.33847 23.2144 2.81824C23.7114 2.29585 24.2686 1.90659 24.8843 1.65408C25.5007 1.39867 26.1657 1.36611 26.8827 1.5535C27.5751 1.73511 28.1076 2.073 28.4781 2.56935C28.8456 3.06497 29.0931 3.64741 29.2146 4.31234C29.3391 4.98017 29.3637 5.69647 29.2913 6.46558C29.2197 7.23181 29.0851 7.98428 28.8927 8.71867C28.677 9.53916 28.3927 10.2924 28.0367 10.9812C27.6836 11.6678 27.2662 12.2481 26.7886 12.7184C26.3111 13.1887 25.7807 13.5208 25.1968 13.7161C24.6101 13.9108 23.9828 13.9216 23.3091 13.7451Z" fill="#292264"/>
<path d="M34.7569 5.81874C34.7569 5.56406 34.699 5.36943 34.5804 5.23557C34.4617 5.10461 34.2693 5.03588 34.0016 5.03588C33.8048 5.03588 33.6051 5.07133 33.4032 5.13934C33.2013 5.21025 33.0168 5.28839 32.8475 5.37666C32.888 6.15374 32.9032 6.92575 32.8931 7.6927C33.1 7.62469 33.3127 7.53642 33.5298 7.42789C33.7469 7.31936 33.9466 7.1855 34.1282 7.02922C34.3105 6.87004 34.4617 6.6935 34.5804 6.4967C34.699 6.30062 34.7569 6.0756 34.7569 5.81874ZM37.5013 5.60892C37.5013 6.29049 37.3443 6.90115 37.031 7.44308C36.7177 7.98573 36.2981 8.46254 35.7749 8.8764C35.9341 9.11372 36.0955 9.38867 36.2655 9.70413C36.4319 10.0196 36.5839 10.3524 36.7155 10.7012C36.8494 11.0521 36.9579 11.403 37.0411 11.751C37.1243 12.1019 37.1677 12.4246 37.1677 12.7198C37.1677 13.0353 37.0918 13.3175 36.9377 13.57C36.7835 13.8196 36.5231 13.9462 36.157 13.9462C35.8509 13.9462 35.5861 13.7972 35.3632 13.502C35.1411 13.2068 34.9436 12.8537 34.7692 12.442C34.5949 12.0332 34.4386 11.6172 34.2946 11.1932C34.1506 10.767 34.0139 10.4262 33.8851 10.1715C33.7085 10.2294 33.5341 10.2974 33.367 10.3705C33.1977 10.4436 33.0262 10.5167 32.8468 10.5847C32.8367 10.8017 32.8193 11.102 32.794 11.4804C32.7708 11.8617 32.7158 12.2401 32.6326 12.6135C32.5494 12.9897 32.4228 13.3153 32.2564 13.5924C32.0871 13.8673 31.8548 14.0063 31.5589 14.0063C31.2326 14.0063 30.983 13.8724 30.8035 13.6076C30.627 13.3399 30.5004 13.0244 30.4273 12.6612C30.3513 12.2951 30.3108 11.9247 30.3007 11.5462C30.2905 11.1649 30.2855 10.8676 30.2855 10.6505C30.2855 10.1889 30.2956 9.73235 30.3159 9.28303C30.3361 8.83661 30.3434 8.37933 30.3434 7.91555C30.3434 7.49445 30.3383 7.07046 30.3231 6.64647C30.3079 6.22248 30.2999 5.79342 30.2999 5.36002C30.2999 5.26162 30.2999 5.135 30.2999 4.98378C30.2999 4.82967 30.3072 4.67339 30.3231 4.50915C30.3383 4.3478 30.3535 4.19151 30.3737 4.04464C30.394 3.89559 30.4295 3.77693 30.4772 3.68866C30.5756 3.48173 30.8006 3.28492 31.1515 3.09825C31.5025 2.91158 31.8867 2.74517 32.3063 2.60118C32.7281 2.46009 33.1376 2.3465 33.537 2.26329C33.9386 2.18009 34.2367 2.1374 34.4342 2.1374C34.9371 2.1374 35.3813 2.23073 35.7684 2.41741C36.1526 2.60408 36.4731 2.85876 36.7315 3.17929C36.989 3.49981 37.1815 3.86809 37.3103 4.28702C37.4383 4.70595 37.5013 5.1473 37.5013 5.60892Z" fill="#292264"/>
<path d="M44.8278 11.5795C44.8278 11.764 44.7779 11.9442 44.6802 12.1186C44.5825 12.2857 44.3525 12.4803 43.9929 12.7054C43.6304 12.9275 43.2303 13.1395 42.7904 13.3392C42.3504 13.5389 41.925 13.7111 41.5155 13.8507C41.1052 13.9932 40.8006 14.0627 40.6053 14.0627C40.47 14.0627 40.3079 14.0301 40.1227 13.9679C39.9375 13.9028 39.7501 13.8232 39.5648 13.7255C39.3796 13.6279 39.2096 13.5157 39.0598 13.3884C38.9071 13.2639 38.7972 13.1409 38.7299 13.0237C38.6901 12.9535 38.6525 12.8189 38.6199 12.6142C38.5852 12.4094 38.5548 12.1699 38.5323 11.895C38.507 11.6229 38.4846 11.3335 38.4651 11.026C38.4448 10.7192 38.4303 10.424 38.4151 10.1469C38.3999 9.86982 38.3905 9.62237 38.3855 9.4082C38.3804 9.19331 38.3782 9.03631 38.3782 8.93863C38.3782 8.57903 38.3905 8.16445 38.4159 7.6956C38.4383 7.22892 38.486 6.75717 38.5533 6.28253C38.6235 5.81079 38.7234 5.35641 38.8558 4.92229C38.986 4.48816 39.1662 4.12061 39.3905 3.81889C39.4577 3.73135 39.5952 3.63946 39.8007 3.53961C40.0055 3.44193 40.2457 3.35004 40.5257 3.2625C40.8028 3.17495 41.1031 3.09247 41.4258 3.01288C41.7485 2.93546 42.061 2.87034 42.3584 2.81535C42.6558 2.76253 42.9257 2.71767 43.1709 2.68584C43.4162 2.65111 43.6007 2.63302 43.7281 2.63302C43.8728 2.63302 44.0131 2.66558 44.1455 2.7278C44.2779 2.79003 44.3908 2.87758 44.4827 2.98249C44.5753 3.08957 44.6477 3.20968 44.7027 3.34208C44.7547 3.4716 44.783 3.61196 44.783 3.75884C44.783 3.88401 44.7656 3.9911 44.733 4.07864C44.6983 4.16619 44.6455 4.26315 44.5782 4.37095C44.4805 4.49829 44.2758 4.65024 43.9632 4.82533C43.6506 5.00043 43.3106 5.17263 42.9459 5.34483C42.5813 5.51486 42.2282 5.6668 41.891 5.80427C41.556 5.94175 41.3187 6.0387 41.1812 6.09658C41.1436 6.3216 41.1009 6.54879 41.0589 6.77815C41.0141 7.00534 40.9815 7.2376 40.9641 7.47202C41.2666 7.31502 41.6066 7.16958 41.9865 7.03284C42.3664 6.89537 42.7289 6.82808 43.0689 6.82808C43.7613 6.82808 44.1086 7.16741 44.1086 7.84898C44.1086 8.01612 44.0761 8.16083 44.0139 8.28817C43.9487 8.41334 43.8662 8.52549 43.7635 8.62244C43.6608 8.7194 43.5436 8.80477 43.4133 8.8793C43.2809 8.95165 43.1507 9.02183 43.0233 9.08912C42.7108 9.25626 42.3837 9.3988 42.0437 9.52107C41.7014 9.64335 41.3585 9.76346 41.0162 9.88284C40.996 9.96315 40.9786 10.05 40.9591 10.1448C40.9388 10.2395 40.9294 10.3322 40.9294 10.4219C40.9294 10.5593 40.9395 10.6968 40.9591 10.8336C40.9793 10.9681 40.9967 11.1056 41.0162 11.2431C41.1335 11.2033 41.3216 11.1403 41.5813 11.0506C41.8411 10.9631 42.1117 10.8755 42.396 10.7887C42.6782 10.7012 42.951 10.6266 43.2158 10.5615C43.4784 10.4993 43.676 10.4667 43.8011 10.4667C43.9487 10.4667 44.0862 10.4993 44.2135 10.5615C44.3409 10.6237 44.4487 10.7091 44.5362 10.8111C44.6238 10.9139 44.694 11.0311 44.749 11.1686C44.8003 11.3075 44.8278 11.4421 44.8278 11.5795Z" fill="#292264"/>
<path d="M44.5492 16.501H45.5043V27.0538H44.5948V17.9893L44.6896 18.4524L41.9156 25.5864H41.2716L38.4976 18.5985L38.5924 17.9893V27.0531H37.6814V16.501H38.6387L41.5943 24.1206L44.5492 16.501ZM32.4872 26.1884C32.9756 26.1884 33.3945 26.077 33.7425 25.8513C34.0905 25.6255 34.3561 25.2992 34.5377 24.873C34.7193 24.4447 34.8097 23.9267 34.8097 23.3225V20.2308C34.8097 19.6267 34.7193 19.1086 34.5377 18.6825C34.3561 18.2541 34.0905 17.9271 33.7425 17.7014C33.3945 17.4756 32.9756 17.3642 32.4872 17.3642C31.9966 17.3642 31.5777 17.4756 31.2297 17.7014C30.8817 17.9271 30.6161 18.2534 30.4345 18.6825C30.2529 19.1086 30.1625 19.626 30.1625 20.2308V23.3225C30.1625 23.9267 30.2529 24.4447 30.4345 24.873C30.6161 25.2992 30.8817 25.6262 31.2297 25.8513C31.5777 26.077 31.9974 26.1884 32.4872 26.1884ZM32.4872 27.1623C31.802 27.1623 31.2188 27.0089 30.737 26.7043C30.2529 26.3997 29.8839 25.9583 29.6307 25.3766C29.3782 24.7971 29.2523 24.096 29.2523 23.2733V20.2837C29.2523 19.461 29.3774 18.7577 29.6307 18.1782C29.8832 17.5986 30.2529 17.1551 30.737 16.8505C31.2188 16.5459 31.802 16.3925 32.4872 16.3925C33.1702 16.3925 33.7534 16.5459 34.2374 16.8505C34.7193 17.1551 35.089 17.5986 35.3415 18.1782C35.594 18.7577 35.7221 19.461 35.7221 20.2837V23.2733C35.7221 24.096 35.5948 24.7963 35.3415 25.3766C35.089 25.9591 34.7193 26.3997 34.2374 26.7043C33.7534 27.0089 33.1702 27.1623 32.4872 27.1623ZM24.3727 26.1884C24.8611 26.1884 25.2801 26.077 25.6281 25.8513C25.9761 25.6255 26.2416 25.2992 26.4232 24.873C26.6048 24.4447 26.6953 23.9267 26.6953 23.3225V20.2308C26.6953 19.6267 26.6048 19.1086 26.4232 18.6825C26.2416 18.2541 25.9761 17.9271 25.6281 17.7014C25.2801 17.4756 24.8611 17.3642 24.3727 17.3642C23.8822 17.3642 23.4633 17.4756 23.1152 17.7014C22.7672 17.9271 22.5017 18.2534 22.3201 18.6825C22.1385 19.1086 22.048 19.626 22.048 20.2308V23.3225C22.048 23.9267 22.1385 24.4447 22.3201 24.873C22.5017 25.2992 22.7672 25.6262 23.1152 25.8513C23.4633 26.077 23.8822 26.1884 24.3727 26.1884ZM24.3727 27.1623C23.6876 27.1623 23.1044 27.0089 22.6225 26.7043C22.1385 26.3997 21.7695 25.9583 21.5162 25.3766C21.2637 24.7971 21.1378 24.096 21.1378 23.2733V20.2837C21.1378 19.461 21.263 18.7577 21.5162 18.1782C21.7687 17.5986 22.1385 17.1551 22.6225 16.8505C23.1044 16.5459 23.6876 16.3925 24.3727 16.3925C25.0558 16.3925 25.6389 16.5459 26.123 16.8505C26.6048 17.1551 26.9746 17.5986 27.2271 18.1782C27.4796 18.7577 27.6077 19.461 27.6077 20.2837V23.2733C27.6077 24.096 27.4803 24.7963 27.2271 25.3766C26.9746 25.9591 26.6048 26.3997 26.123 26.7043C25.6389 27.0089 25.0558 27.1623 24.3727 27.1623ZM16.6425 22.2625L17.4854 21.9304L19.8405 27.0531H18.7516L16.6425 22.2625ZM13.1297 16.4931H14.0414V27.0531H13.1297V16.4931ZM13.6941 21.6186H16.8335C17.175 21.6186 17.4775 21.5318 17.7365 21.361C17.9955 21.1874 18.1966 20.945 18.337 20.6302C18.4774 20.3155 18.5512 19.9537 18.5555 19.5428C18.5555 19.1318 18.4839 18.7671 18.3435 18.4531C18.2032 18.1384 18.002 17.896 17.743 17.7245C17.484 17.5538 17.1794 17.4669 16.8335 17.4669H13.6941V16.4938H16.7836C17.3154 16.4938 17.7813 16.6204 18.1858 16.8729C18.5874 17.1233 18.9006 17.48 19.1213 17.943C19.3442 18.4039 19.4541 18.9386 19.4541 19.5435C19.4541 20.1476 19.3442 20.6802 19.1213 21.1439C18.9006 21.6048 18.5881 21.9615 18.1815 22.214C17.7777 22.4644 17.311 22.5903 16.7836 22.5903H13.6941V21.6186Z" fill="#EE7C00"/>
<path d="M45.5861 42.2516H46.0036C46.2033 42.2516 46.3393 42.222 46.4124 42.1626C46.4847 42.1033 46.5216 42.0244 46.5216 41.9275C46.5216 41.8645 46.5035 41.8081 46.4688 41.7589C46.4341 41.709 46.3856 41.6721 46.3234 41.6475C46.2604 41.6236 46.1461 41.6106 45.9775 41.6106H45.5861V42.2516ZM45.2417 43.4505V41.3212H45.9746C46.2257 41.3212 46.4066 41.3407 46.5187 41.3805C46.6316 41.4196 46.7206 41.4883 46.7879 41.5867C46.8544 41.6844 46.887 41.7886 46.887 41.8985C46.887 42.0534 46.8313 42.1901 46.7191 42.3044C46.6077 42.4202 46.4601 42.4846 46.2756 42.4991C46.3509 42.5302 46.4116 42.5678 46.4565 42.6119C46.5426 42.6952 46.6475 42.8362 46.772 43.0338L47.0317 43.4505H46.6142L46.4239 43.1155C46.2749 42.8514 46.1541 42.685 46.0629 42.6192C46 42.5707 45.9088 42.5468 45.788 42.5476H45.5854V43.4512H45.2417V43.4505ZM46.1121 40.7025C45.8335 40.7025 45.5622 40.7742 45.2981 40.9167C45.0348 41.0592 44.8285 41.2633 44.6795 41.5288C44.5305 41.7944 44.4567 42.07 44.4567 42.3565C44.4567 42.6423 44.5305 42.9158 44.6759 43.1778C44.822 43.4397 45.0261 43.6437 45.2887 43.7899C45.5514 43.936 45.8256 44.0091 46.1114 44.0091C46.3965 44.0091 46.6707 43.9353 46.9333 43.7899C47.196 43.6437 47.4 43.4397 47.5454 43.1778C47.6909 42.9158 47.7632 42.6431 47.7632 42.3565C47.7632 42.07 47.6887 41.7936 47.5411 41.5288C47.3935 41.2633 47.1873 41.0592 46.9225 40.9167C46.6591 40.7742 46.3878 40.7025 46.1121 40.7025ZM46.1121 40.3748C46.4442 40.3748 46.7691 40.4602 47.086 40.6309C47.4022 40.8009 47.6496 41.0455 47.8262 41.3631C48.0027 41.6815 48.0917 42.0129 48.0917 42.3573C48.0917 42.6988 48.0049 43.0273 47.8298 43.342C47.6561 43.6575 47.4123 43.902 47.0976 44.0757C46.7828 44.2508 46.4543 44.3376 46.1121 44.3376C45.7691 44.3376 45.4399 44.2508 45.1252 44.0757C44.8105 43.902 44.5659 43.6575 44.3915 43.342C44.2164 43.0273 44.1289 42.6988 44.1289 42.3573C44.1289 42.0129 44.2179 41.6815 44.3952 41.3631C44.5731 41.0462 44.8206 40.8009 45.1375 40.6309C45.4544 40.4602 45.7786 40.3748 46.1121 40.3748Z" fill="#1A1A18"/>
<path d="M9.8069 59.0776C9.2764 59.2851 8.59854 59.3888 7.77332 59.3888C7.67194 59.3888 7.57527 59.3405 7.48332 59.2438C7.39372 59.1495 7.34892 59.0517 7.34892 58.9503V57.9211C7.34892 57.584 7.37014 57.103 7.41258 56.4782C7.45974 55.8038 7.48567 55.3158 7.49039 55.014C7.48803 54.7971 7.501 54.4741 7.52929 54.0449C7.5458 53.927 7.5847 53.8492 7.646 53.8115C7.96666 53.7125 8.33094 53.663 8.73883 53.663C9.1538 53.663 9.55226 53.8044 9.93422 54.0874C10.3751 54.4128 10.5956 54.8148 10.5956 55.2934C10.5956 55.8993 10.3598 56.3768 9.88824 56.7257C10.2419 56.8766 10.506 57.044 10.6805 57.2279C10.8573 57.4118 10.9457 57.6122 10.9457 57.8292C10.9457 58.1145 10.7913 58.3903 10.4824 58.6567C10.2678 58.8454 10.0427 58.9857 9.8069 59.0776ZM8.73883 54.3845C8.48183 54.3845 8.30146 54.3927 8.19772 54.4092L8.19065 55.0281L8.11991 56.3968C8.45472 56.4251 8.63391 56.4381 8.65749 56.4357C9.01351 56.4074 9.3047 56.2966 9.53104 56.1033C9.77389 55.8934 9.89532 55.6235 9.89532 55.2934C9.89532 55.0694 9.77153 54.8619 9.52397 54.6709C9.2764 54.4799 9.01469 54.3845 8.73883 54.3845ZM9.13494 57.2173L8.76005 57.1572C8.7294 57.1572 8.68224 57.1596 8.61858 57.1643C8.55728 57.1666 8.51013 57.1678 8.47712 57.1678C8.3498 57.1678 8.21423 57.1572 8.0704 57.136C8.05625 57.4331 8.04918 57.6983 8.04918 57.9317V58.6638C8.66692 58.6426 9.1703 58.5554 9.55933 58.4021C9.72438 58.3384 9.88235 58.2394 10.0332 58.105C10.1771 57.9824 10.249 57.8905 10.249 57.8292C10.249 57.7183 10.0981 57.5934 9.79629 57.4543C9.56994 57.3482 9.34949 57.2692 9.13494 57.2173Z" fill="#292264"/>
<path d="M15.6636 59.3252C15.4467 59.3252 15.2581 59.047 15.0977 58.4905C15.0364 58.2783 14.9598 57.907 14.8679 57.3765C14.6274 57.4095 14.3126 57.4684 13.9236 57.5533L12.9828 57.7478C12.8649 58.0567 12.6633 58.5082 12.3781 59.1024C12.3026 59.2344 12.2 59.3004 12.0704 59.3004C11.9761 59.3004 11.8912 59.2662 11.8157 59.1979C11.7426 59.1295 11.7061 59.0446 11.7061 58.9432C11.7061 58.83 11.8841 58.3997 12.2401 57.6523C12.2 57.591 12.18 57.5203 12.18 57.4401C12.18 57.2492 12.2955 57.1265 12.5266 57.0723C12.7954 56.5678 13.1349 55.9877 13.5451 55.3323C14.1039 54.4387 14.4517 53.9919 14.5885 53.9919C14.7747 53.9919 14.902 54.1216 14.9704 54.3809L15.1932 55.5692L15.7202 58.0272L15.9218 58.586C15.9902 58.777 16.0243 58.9043 16.0243 58.968C16.0243 59.0694 15.9878 59.1542 15.9147 59.2226C15.8416 59.291 15.7579 59.3252 15.6636 59.3252ZM14.4152 55.2828L13.4037 56.9132C13.689 56.8401 14.1216 56.7517 14.7016 56.6479L14.4152 55.2828Z" fill="#292264"/>
<path d="M20.3461 59.1943C19.9807 59.4442 19.4561 59.5692 18.7723 59.5692C18.6002 59.5692 18.4033 59.5421 18.1817 59.4879C17.9153 59.4242 17.7149 59.3417 17.5805 59.2403H17.5451C17.4437 59.2403 17.3588 59.2049 17.2905 59.1342C17.2221 59.0635 17.1879 58.9774 17.1879 58.876C17.1879 58.6284 17.1985 58.2583 17.2197 57.7655C17.2433 57.2704 17.2551 56.899 17.2551 56.6515C17.2551 56.3756 17.2492 55.9642 17.2374 55.4172C17.228 54.8678 17.2233 54.4552 17.2233 54.1793C17.2233 54.0827 17.2728 53.9813 17.3718 53.8752C17.4708 53.7691 17.5699 53.716 17.6689 53.716C17.7255 53.716 17.9141 53.795 18.2348 53.953C18.5979 54.1298 18.8077 54.2277 18.8643 54.2465C19.5339 54.4752 20.1045 54.8265 20.576 55.3005C21.1301 55.8592 21.4071 56.4734 21.4071 57.1431C21.4071 57.5462 21.3117 57.9329 21.1207 58.3031C20.9321 58.6732 20.6739 58.9703 20.3461 59.1943ZM19.6034 55.4525C19.363 55.2946 18.8077 55.0234 17.9377 54.6391L17.9554 55.6577L17.966 56.6727L17.9094 58.6037C17.9259 58.6108 17.9506 58.6261 17.9837 58.6497C18.1911 58.7888 18.4529 58.8583 18.7688 58.8583C19.3064 58.8583 19.6978 58.7758 19.943 58.6108C20.1717 58.4552 20.3532 58.2465 20.4876 57.9848C20.6244 57.7207 20.6927 57.446 20.6927 57.1607C20.6927 56.4958 20.3296 55.9264 19.6034 55.4525Z" fill="#292264"/>
<path d="M26.1887 59.3252C25.9718 59.3252 25.7832 59.047 25.6228 58.4905C25.5615 58.2783 25.4849 57.907 25.393 57.3765C25.1525 57.4095 24.8377 57.4684 24.4487 57.5533L23.5079 57.7478C23.39 58.0567 23.1884 58.5082 22.9031 59.1024C22.8277 59.2344 22.7251 59.3004 22.5955 59.3004C22.5011 59.3004 22.4163 59.2662 22.3408 59.1979C22.2677 59.1295 22.2312 59.0446 22.2312 58.9432C22.2312 58.83 22.4092 58.3997 22.7652 57.6523C22.7251 57.591 22.7051 57.5203 22.7051 57.4401C22.7051 57.2492 22.8206 57.1265 23.0517 57.0723C23.3205 56.5678 23.66 55.9877 24.0702 55.3323C24.629 54.4387 24.9768 53.9919 25.1136 53.9919C25.2998 53.9919 25.4271 54.1216 25.4955 54.3809L25.7183 55.5692L26.2453 58.0272L26.4469 58.586C26.5153 58.777 26.5494 58.9043 26.5494 58.968C26.5494 59.0694 26.5129 59.1542 26.4398 59.2226C26.3667 59.291 26.283 59.3252 26.1887 59.3252ZM24.9403 55.2828L23.9288 56.9132C24.2141 56.8401 24.6467 56.7517 25.2267 56.6479L24.9403 55.2828Z" fill="#292264"/>
<path d="M30.6909 59.0741C30.4244 59.199 30.0059 59.311 29.4354 59.4101C28.9096 59.502 28.4805 59.548 28.148 59.548C27.9099 59.548 27.7389 59.5114 27.6352 59.4383C27.4937 59.3393 27.423 59.1578 27.423 58.8937L27.4937 57.7231C27.555 56.6432 27.5857 55.4455 27.5857 54.1298C27.5857 54.0284 27.6187 53.9424 27.6847 53.8716C27.7531 53.8009 27.8368 53.7655 27.9358 53.7655C28.0372 53.7655 28.1209 53.8009 28.1869 53.8716C28.2553 53.9424 28.2895 54.0284 28.2895 54.1298C28.2895 55.462 28.2577 56.6739 28.194 57.7655L28.148 58.3031C28.1292 58.4988 28.1221 58.6721 28.1268 58.823C28.7422 58.83 29.5202 58.685 30.461 58.388C30.5011 58.3762 30.5388 58.3703 30.5742 58.3703C30.6755 58.3703 30.7604 58.4104 30.8288 58.4905C30.8877 58.5636 30.9172 58.6473 30.9172 58.7416C30.9172 58.8925 30.8418 59.0033 30.6909 59.0741Z" fill="#292264"/>
<path d="M37.025 59.1943C36.6596 59.4442 36.135 59.5692 35.4512 59.5692C35.2791 59.5692 35.0822 59.5421 34.8606 59.4879C34.5942 59.4242 34.3938 59.3417 34.2594 59.2403H34.224C34.1226 59.2403 34.0377 59.2049 33.9694 59.1342C33.901 59.0635 33.8668 58.9774 33.8668 58.876C33.8668 58.6284 33.8774 58.2583 33.8986 57.7655C33.9222 57.2704 33.934 56.899 33.934 56.6515C33.934 56.3756 33.9281 55.9642 33.9163 55.4172C33.9069 54.8678 33.9022 54.4552 33.9022 54.1793C33.9022 54.0827 33.9517 53.9813 34.0507 53.8752C34.1497 53.7691 34.2488 53.716 34.3478 53.716C34.4044 53.716 34.593 53.795 34.9136 53.953C35.2767 54.1298 35.4866 54.2277 35.5432 54.2465C36.2128 54.4752 36.7834 54.8265 37.2549 55.3005C37.809 55.8592 38.086 56.4734 38.086 57.1431C38.086 57.5462 37.9905 57.9329 37.7996 58.3031C37.6109 58.6732 37.3528 58.9703 37.025 59.1943ZM36.2823 55.4525C36.0418 55.2946 35.4866 55.0234 34.6166 54.6391L34.6342 55.6577L34.6449 56.6727L34.5883 58.6037C34.6048 58.6108 34.6295 58.6261 34.6625 58.6497C34.87 58.7888 35.1317 58.8583 35.4477 58.8583C35.9853 58.8583 36.3766 58.7758 36.6218 58.6108C36.8506 58.4552 37.0321 58.2465 37.1665 57.9848C37.3032 57.7207 37.3716 57.446 37.3716 57.1607C37.3716 56.4958 37.0085 55.9264 36.2823 55.4525Z" fill="#292264"/>
<path d="M42.8676 59.3252C42.6507 59.3252 42.4621 59.047 42.3017 58.4905C42.2404 58.2783 42.1638 57.907 42.0718 57.3765C41.8313 57.4095 41.5166 57.4684 41.1276 57.5533L40.1868 57.7478C40.0689 58.0567 39.8673 58.5082 39.582 59.1024C39.5066 59.2344 39.404 59.3004 39.2743 59.3004C39.18 59.3004 39.0952 59.2662 39.0197 59.1979C38.9466 59.1295 38.9101 59.0446 38.9101 58.9432C38.9101 58.83 39.0881 58.3997 39.4441 57.6523C39.404 57.591 39.384 57.5203 39.384 57.4401C39.384 57.2492 39.4995 57.1265 39.7306 57.0723C39.9994 56.5678 40.3389 55.9877 40.7491 55.3323C41.3079 54.4387 41.6557 53.9919 41.7924 53.9919C41.9787 53.9919 42.106 54.1216 42.1744 54.3809L42.3972 55.5692L42.9242 58.0272L43.1258 58.586C43.1941 58.777 43.2283 58.9043 43.2283 58.968C43.2283 59.0694 43.1918 59.1542 43.1187 59.2226C43.0456 59.291 42.9619 59.3252 42.8676 59.3252ZM41.6191 55.2828L40.6077 56.9132C40.893 56.8401 41.3256 56.7517 41.9056 56.6479L41.6191 55.2828Z" fill="#292264"/>
<path d="M47.3698 59.0741C47.1033 59.199 46.6848 59.311 46.1142 59.4101C45.5885 59.502 45.1593 59.548 44.8269 59.548C44.5888 59.548 44.4178 59.5114 44.3141 59.4383C44.1726 59.3393 44.1019 59.1578 44.1019 58.8937L44.1726 57.7231C44.2339 56.6432 44.2646 55.4455 44.2646 54.1298C44.2646 54.0284 44.2976 53.9424 44.3636 53.8716C44.432 53.8009 44.5157 53.7655 44.6147 53.7655C44.7161 53.7655 44.7998 53.8009 44.8658 53.8716C44.9342 53.9424 44.9684 54.0284 44.9684 54.1298C44.9684 55.462 44.9365 56.6739 44.8729 57.7655L44.8269 58.3031C44.808 58.4988 44.801 58.6721 44.8057 58.823C45.4211 58.83 46.1991 58.685 47.1399 58.388C47.18 58.3762 47.2177 58.3703 47.253 58.3703C47.3544 58.3703 47.4393 58.4104 47.5077 58.4905C47.5666 58.5636 47.5961 58.6473 47.5961 58.7416C47.5961 58.8925 47.5207 59.0033 47.3698 59.0741Z" fill="#292264"/>
<path d="M50.5704 59.4348C49.9055 59.4348 49.342 59.2356 48.8799 58.8371C48.3895 58.4127 48.1443 57.8657 48.1443 57.1961C48.1443 56.3803 48.386 55.6388 48.8693 54.9715C49.4092 54.2312 50.0824 53.861 50.8887 53.861C51.6644 53.861 52.2409 54.0355 52.6182 54.3845C53.0119 54.7476 53.2088 55.3205 53.2088 56.1033C53.2088 56.9191 52.9871 57.6547 52.5439 58.3101C52.0346 59.0599 51.3768 59.4348 50.5704 59.4348ZM50.8887 54.586C50.3111 54.586 49.8218 54.8737 49.421 55.449C49.0508 55.9771 48.8658 56.5595 48.8658 57.1961C48.8658 57.6512 49.0343 58.0213 49.3715 58.3066C49.6945 58.5754 50.0942 58.7098 50.5704 58.7098C51.1434 58.7098 51.6161 58.421 51.9886 57.8433C52.3211 57.327 52.4873 56.7469 52.4873 56.1033C52.4873 55.5398 52.3612 55.1437 52.1089 54.915C51.8684 54.6957 51.4617 54.586 50.8887 54.586Z" fill="#292264"/>
</svg>
